<svg width="50" height="50" viewBox="0 0 50 50" fill="none" xmlns="http://www.w3.org/2000/svg">
<path d="M8 30C10.7614 30 13 27.7614 13 25C13 22.2386 10.7614 20 8 20C5.23858 20 3 22.2386 3 25C3 27.7614 5.23858 30 8 30Z" fill="#1C1C1E"/>
<path d="M25 30C27.7614 30 30 27.7614 30 25C30 22.2386 27.7614 20 25 20C22.2386 20 20 22.2386 20 25C20 27.7614 22.2386 30 25 30Z" fill="#1C1C1E"/>
<path d="M42 30C44.7614 30 47 27.7614 47 25C47 22.2386 44.7614 20 42 20C39.2386 20 37 22.2386 37 25C37 27.7614 39.2386 30 42 30Z" fill="#1C1C1E"/>
</svg>
