<svg width="50" height="50" viewBox="0 0 50 50" fill="none" xmlns="http://www.w3.org/2000/svg">
<path d="M33.9 0C31.4 0 28.9 0.6 26.7 1.7C24.5 2.8 22.5 4.5 21 6.5C19.5 8.5 18.5 10.9 18.1 13.3C17.7 15.8 17.8 18.3 18.6 20.7L0 39.3V50H10.7L29.2 31.5C31.4 32.2 33.7 32.4 36 32C38.3 31.7 40.5 30.9 42.4 29.7C44.4 28.5 46 26.8 47.3 24.9C48.6 23 49.4 20.8 49.7 18.5C50 16.2 49.9 13.9 49.2 11.7C48.6 9.5 47.4 7.4 45.9 5.7C44.4 4 42.5 2.5 40.4 1.6C38.5 0.5 36.2 0 33.9 0ZM33.9 28.6C32.7 28.6 31.4 28.4 30.3 28.1L28.3 27.5L26.8 29L21.1 34.7L18.6 32.2L16.1 34.7L18.6 37.2L15.7 40L13.2 37.5L10.7 40L13.2 42.5L9.3 46.4H3.6V40.7L21.1 23.2L22.6 21.7L22 19.7C21.2 17.2 21.3 14.5 22.1 12C23 9.5 24.6 7.4 26.7 5.8C28.8 4.3 31.4 3.5 34.1 3.5C36.7 3.5 39.3 4.4 41.4 6C43.5 7.6 45.1 9.8 45.9 12.3C46.7 14.8 46.7 17.5 45.9 20C45.1 22.5 43.5 24.7 41.4 26.2C39.1 27.7 36.6 28.6 33.9 28.6Z" fill="white"/>
<path d="M35.7 17.9C37.7 17.9 39.3 16.3 39.3 14.3C39.3 12.3 37.7 10.7 35.7 10.7C33.7 10.7 32.1 12.3 32.1 14.3C32.1 16.3 33.7 17.9 35.7 17.9Z" fill="white"/>
</svg>
