<svg width="50" height="50" viewBox="0 0 50 50" fill="none" xmlns="http://www.w3.org/2000/svg">
<path d="M46.4 5.59998H3.6C2.6 5.59998 1.7 5.99998 1 6.69998C0.4 7.39998 0 8.39998 0 9.39998V40.5C0 41.5 0.4 42.5 1 43.2C1.7 43.9 2.6 44.3 3.5 44.3H46.4C47.3 44.3 48.3 43.9 48.9 43.2C49.6 42.5 49.9 41.5 49.9 40.5V9.39998C49.9 8.39998 49.5 7.39998 48.9 6.69998C48.3 5.99998 47.4 5.59998 46.4 5.59998ZM42.5 9.39998L25 22.6L7.5 9.39998H42.5ZM3.6 40.6V11.2L24 26.6C24.3 26.8 24.7 26.9 25 26.9C25.3 26.9 25.7 26.8 26 26.6L46.4 11.2V40.5H3.6V40.6Z" fill="white"/>
</svg>
