<svg width="50" height="50" viewBox="0 0 51 43" fill="none" xmlns="http://www.w3.org/2000/svg">
<path d="M25.5 16.4875L22.6504 10.8969C21.9427 9.5125 20.7156 7.52187 18.9784 5.9125C17.2699 4.32812 15.2235 3.25 12.75 3.25C7.40775 3.25 3.1875 7.39375 3.1875 12.375C3.1875 16.1594 4.95337 18.8312 9.14175 22.9062C10.2159 23.95 11.4399 25.0781 12.7946 26.3219C16.3264 29.5719 20.7188 33.6156 25.5 39.0219C30.2812 33.6156 34.6736 29.5719 38.2054 26.3219C39.5601 25.0781 40.7873 23.9469 41.8582 22.9062C46.0466 18.8312 47.8125 16.1594 47.8125 12.375C47.8125 7.39375 43.5923 3.25 38.25 3.25C35.7733 3.25 33.7301 4.32812 32.0216 5.9125C30.2844 7.52187 29.0573 9.5125 28.3496 10.8969L25.5 16.4875ZM26.7495 42.4C26.596 42.5783 26.4047 42.7215 26.1889 42.8198C25.973 42.9181 25.738 42.969 25.5 42.969C25.262 42.969 25.027 42.9181 24.8111 42.8198C24.5953 42.7215 24.404 42.5783 24.2505 42.4C19.1473 36.4562 14.5286 32.2062 10.7259 28.7094C4.14375 22.65 0 18.8406 0 12.375C0 5.60938 5.70563 0.125 12.75 0.125C17.85 0.125 21.4168 3.40625 23.6003 6.4C24.429 7.54062 25.0601 8.6375 25.5 9.5C26.0514 8.42054 26.6865 7.38416 27.3997 6.4C29.5832 3.40312 33.15 0.125 38.25 0.125C45.2944 0.125 51 5.60938 51 12.375C51 18.8406 46.8563 22.65 40.2741 28.7094C36.4714 32.2094 31.8527 36.4594 26.7495 42.3969V42.4Z" fill="white"/>
</svg>
