<svg width="50" height="50" viewBox="0 0 50 48" fill="none" xmlns="http://www.w3.org/2000/svg">
<path d="M8.36875 34.9121C8.69312 35.2442 8.94167 35.6453 9.09669 36.0866C9.25172 36.5279 9.3094 36.9987 9.26562 37.4653C9.046 39.6251 8.62961 41.7593 8.02187 43.8403C12.3812 42.8108 15.0438 41.6186 16.2531 40.9939C16.9391 40.6395 17.729 40.5555 18.4719 40.758C20.6014 41.3371 22.7961 41.6286 25 41.625C37.4875 41.625 46.875 32.6777 46.875 22.5C46.875 12.3255 37.4875 3.375 25 3.375C12.5125 3.375 3.125 12.3255 3.125 22.5C3.125 27.1793 5.05312 31.5206 8.36875 34.9121ZM6.82812 47.3593C6.08771 47.509 5.3449 47.6461 4.6 47.7705C3.975 47.8725 3.5 47.2095 3.74688 46.6166C4.02435 45.9492 4.27867 45.2719 4.50938 44.5862L4.51875 44.5543C5.29375 42.2593 5.925 39.6201 6.15625 37.1625C2.32188 33.2419 0 28.11 0 22.5C0 10.1771 11.1937 0.1875 25 0.1875C38.8063 0.1875 50 10.1771 50 22.5C50 34.8229 38.8063 44.8125 25 44.8125C22.5239 44.8159 20.0581 44.488 17.6656 43.8371C16.0406 44.6754 12.5437 46.2023 6.82812 47.3593Z" fill="white"/>
</svg>
