<svg width="50" height="50" viewBox="0 0 50 51" fill="none" xmlns="http://www.w3.org/2000/svg">
<path d="M25 12.75C23.4548 12.75 21.9444 13.2174 20.6596 14.093C19.3749 14.9686 18.3735 16.2131 17.7822 17.6692C17.1909 19.1253 17.0362 20.7276 17.3376 22.2734C17.6391 23.8192 18.3831 25.2391 19.4757 26.3535C20.5683 27.468 21.9604 28.2269 23.4759 28.5344C24.9913 28.8419 26.5622 28.6841 27.9897 28.0809C29.4173 27.4778 30.6374 26.4564 31.4959 25.146C32.3543 23.8355 32.8125 22.2948 32.8125 20.7188C32.8125 18.6053 31.9894 16.5784 30.5243 15.084C29.0591 13.5896 27.072 12.75 25 12.75ZM25 25.5C24.0729 25.5 23.1666 25.2196 22.3958 24.6942C21.6249 24.1688 21.0241 23.4221 20.6693 22.5485C20.3145 21.6748 20.2217 20.7134 20.4026 19.786C20.5834 18.8585 21.0299 18.0066 21.6854 17.3379C22.341 16.6692 23.1762 16.2139 24.0855 16.0294C24.9948 15.8449 25.9373 15.9396 26.7938 16.3015C27.6504 16.6633 28.3824 17.2762 28.8975 18.0624C29.4126 18.8487 29.6875 19.7731 29.6875 20.7188C29.6863 21.9864 29.192 23.2018 28.3132 24.0982C27.4344 24.9946 26.2428 25.4987 25 25.5Z" fill="white"/>
<path d="M25 3.1875C20.6735 3.1875 16.4442 4.49611 12.8469 6.94783C9.24959 9.39956 6.44581 12.8843 4.79015 16.9614C3.13448 21.0385 2.70128 25.5248 3.54533 29.853C4.38938 34.1812 6.47278 38.1569 9.53205 41.2773C12.5913 44.3978 16.4891 46.5228 20.7324 47.3838C24.9757 48.2447 29.3741 47.8028 33.3712 46.1141C37.3683 44.4253 40.7848 41.5654 43.1884 37.8962C45.5921 34.2269 46.875 29.913 46.875 25.5C46.8684 19.5844 44.5616 13.9131 40.4607 9.73013C36.3597 5.54719 30.7996 3.19425 25 3.1875ZM15.625 42.0383V39.8438C15.6263 38.5761 16.1205 37.3607 16.9993 36.4643C17.8781 35.5679 19.0697 35.0638 20.3125 35.0625H29.6875C30.9303 35.0638 32.1219 35.5679 33.0007 36.4643C33.8795 37.3607 34.3738 38.5761 34.375 39.8438V42.0383C31.53 43.7328 28.2946 44.6258 25 44.6258C21.7055 44.6258 18.4701 43.7328 15.625 42.0383ZM37.4875 39.7258C37.4564 37.6353 36.6213 35.641 35.1624 34.1725C33.7034 32.704 31.7372 31.8789 29.6875 31.875H20.3125C18.2628 31.8789 16.2966 32.704 14.8376 34.1725C13.3787 35.641 12.5436 37.6353 12.5125 39.7258C9.67902 37.1451 7.68084 33.7475 6.78256 29.9827C5.88429 26.2179 6.12829 22.2636 7.48226 18.6435C8.83622 15.0233 11.2363 11.908 14.3647 9.71003C17.493 7.51209 21.2021 6.3352 25.0008 6.3352C28.7995 6.3352 32.5086 7.51209 35.6369 9.71003C38.7653 11.908 41.1654 15.0233 42.5193 18.6435C43.8733 22.2636 44.1173 26.2179 43.219 29.9827C42.3207 33.7475 40.3226 37.1451 37.4891 39.7258H37.4875Z" fill="white" stroke="white"/>
<path d="M20 17.5L24.5 15L26.5 16L30 18.5L29.5 24L24.5 25.5L19.5 23.5L20 17.5Z" fill="white" stroke="white" stroke-width="3" stroke-linecap="round"/>
<path d="M17 35L20.5 33.5H26.5L28.5 34L34.5 37V41L29.5 43.5L21.5 44L16 42.5L15 39L17 35Z" fill="white"/>
<path d="M27 33.5H26.5M26.5 33.5H20.5L17 35L15 39L16 42.5L21.5 44L29.5 43.5L34.5 41V37L28.5 34L26.5 33.5Z" stroke="white" stroke-width="3" stroke-linecap="round"/>
</svg>
