<svg width="50" height="50" viewBox="0 0 50 50" fill="none" xmlns="http://www.w3.org/2000/svg">
<g clip-path="url(#clip0)">
<path d="M24.9999 12.3C23.4999 12.3 21.8999 12.8 20.6999 13.6C19.3999 14.5 18.3999 15.7 17.7999 17.2C17.1999 18.7 17.0999 20.3 17.3999 21.8C17.6999 23.3 18.3999 24.8 19.4999 25.9C20.5999 27 21.9999 27.8 23.4999 28.1C24.9999 28.4 26.5999 28.2 27.9999 27.6C29.3999 27 30.5999 26 31.4999 24.7C32.3999 23.4 32.7999 21.8 32.7999 20.3C32.7999 18.2 31.9999 16.2 30.4999 14.7C29.0999 13.1 27.0999 12.3 24.9999 12.3ZM24.9999 25C24.0999 25 23.1999 24.7 22.3999 24.2C21.5999 23.7 20.9999 22.9 20.6999 22.1C20.2999 21.2 20.2999 20.3 20.3999 19.3C20.5999 18.4 20.9999 17.5 21.6999 16.9C22.3999 16.2 23.1999 15.8 24.0999 15.6C24.9999 15.4 25.9999 15.5 26.7999 15.9C27.6999 16.3 28.3999 16.9 28.8999 17.7C29.3999 18.5 29.6999 19.4 29.6999 20.4C29.6999 21.7 29.1999 22.9 28.2999 23.8C27.3999 24.7 26.1999 25 24.9999 25Z" fill="white"/>
<path d="M25.0999 0C20.1999 0 15.3999 1.5 11.2999 4.2C7.19991 7 4.09991 10.9 2.19991 15.4C0.299909 20 -0.200091 25 0.799909 29.9C1.79991 34.7 4.09991 39.2 7.59991 42.7C11.0999 46.2 15.4999 48.6 20.2999 49.5C25.0999 50.5 30.0999 50 34.6999 48.1C39.1999 46.2 43.0999 43 45.8999 38.9C48.4999 34.8 49.9999 29.9 49.9999 25C49.9999 18.4 47.3999 12 42.6999 7.3C38.0999 2.6 31.6999 0 25.0999 0ZM14.4999 43.5V41C14.4999 39.6 15.0999 38.2 16.0999 37.2C17.0999 36.2 18.4999 35.6 19.8999 35.6H30.5999C31.9999 35.6 33.3999 36.2 34.3999 37.2C35.3999 38.2 35.9999 39.6 35.9999 41V43.5C32.7999 45.4 29.0999 46.4 25.2999 46.4C21.3999 46.4 17.6999 45.4 14.4999 43.5ZM39.2999 40.9C39.2999 38.6 38.2999 36.3 36.6999 34.7C34.9999 33.1 32.7999 32.1 30.4999 32.1H19.7999C17.4999 32.1 15.1999 33 13.5999 34.7C11.8999 36.3 10.9999 38.6 10.9999 40.9C7.69991 38 5.49991 34.2 4.39991 30C3.39991 25.8 3.69991 21.4 5.19991 17.3C6.69991 13.2 9.49991 9.8 12.9999 7.3C16.5999 4.8 20.7999 3.5 25.0999 3.5C29.3999 3.5 33.5999 4.8 37.1999 7.3C40.7999 9.8 43.4999 13.3 44.9999 17.3C46.4999 21.4 46.7999 25.8 45.7999 30C44.7999 34.2 42.5999 38 39.2999 40.9Z" fill="white"/>
<path d="M22.2999 14.2L19.2 17.4V22.8L22.6 26L28 25.7L31.2 21.7L29.7 16.6L22.2999 14.2Z" fill="white"/>
<path d="M19.6 34.5L15.5 36.1L12.5 39.8L12.8 44L14.5 45.5L18.5 46.4C18.5 46.4 24.3 47.2 24.6 47.2C24.9 47.2 29.9 46.7 30 46.6C30.2 46.5 34.8 44.4 34.8 44.4L36.8 42.8L36.4 38.3L34.8 35L31.3 34.1H19.5L19.6 34.5Z" fill="white"/>
</g>
<defs>
<clipPath id="clip0">
<rect width="50" height="50" fill="white"/>
</clipPath>
</defs>
</svg>
