<svg width="50" height="50" viewBox="0 0 50 50" fill="none" xmlns="http://www.w3.org/2000/svg">
<path d="M25 19.1L22.3 12.6C21.5 11 20.3 8.6 18.7 6.8C17.1 5 15 3.7 12.6 3.7C7.4 3.7 3.2 8.5 3.2 14.3C3.2 18.7 5 21.8 9.1 26.6C10.2 27.8 11.4 29.1 12.7 30.6C16.1 34.4 20.4 39.1 25.2 45.4C29.9 39.1 34.2 34.4 37.7 30.6C39.1 29.1 40.2 27.8 41.3 26.6C45.4 21.8 47.2 18.7 47.2 14.3C47.2 8.5 43.1 3.7 37.8 3.7C35.3 3.7 33.4 5 31.7 6.8C30 8.7 28.8 11 28.1 12.6L25 19.1ZM26.2 49.3C26 49.5 25.9 49.7 25.6 49.8C25.5 49.9 25.2 50 25 50C24.8 50 24.5 49.9 24.3 49.8C24.1 49.7 23.9 49.5 23.7 49.3C18.7 42.4 14.2 37.4 10.5 33.3C4 26.3 0 21.8 0 14.3C0 6.4 5.6 0 12.5 0C17.5 0 21 3.8 23.2 7.3C24 8.6 24.7 9.9 25.1 10.9C25.7 9.6 26.3 8.4 27 7.3C29 3.8 32.5 0 37.5 0C44.4 0 50 6.4 50 14.3C50 21.8 46 26.3 39.5 33.4C35.8 37.4 31.3 42.4 26.2 49.3Z" fill="white"/>
<path d="M25.8 14.2L21.4 8.19995C21.4 8.19995 17.1 3.09995 16.4 2.79995C15.7 2.49995 9.40003 1.69995 9.40003 1.69995L5.30003 4.69995L2.00003 9.99995C2.00003 9.99995 1.70003 18.4 2.00003 18.7C2.30003 19 7.30003 28.2999 7.30003 28.2999L13.1 33.7C13.1 33.7 17.6 38.8 17.8 38.9C18 39 23.7 45.2999 23.7 45.2999H27.4L31.5 39.5999L37.1 33.2L44.9 24.4L48.3 14.7V8.39995L45.2 5.49995L40.6 3.19995L34.5 3.09995L30 7.69995L25.8 14.2Z" fill="white"/>
</svg>
