<svg width="50" height="51" viewBox="0 0 50 51" fill="none" xmlns="http://www.w3.org/2000/svg">
<g clip-path="url(#clip0)">
<path d="M8.8001 37C9.1001 37.3 9.4001 37.8 9.5001 38.2C9.7001 38.7 9.7001 39.1999 9.7001 39.5999C9.5001 41.8999 9.1001 44.0999 8.5001 46.2999C12.7001 45.1999 15.3001 43.9999 16.5001 43.2999C17.2001 42.8999 17.9001 42.7999 18.7001 43.0999C20.8001 43.6999 22.9001 44 25.1001 44C37.3001 44 46.4001 34.6 46.4001 24C46.4001 13.4 37.2001 3.99995 25.1001 3.99995C13.0001 3.99995 3.7001 13.4 3.7001 24C3.7001 28.9 5.6001 33.4 8.8001 37ZM7.3001 50C6.6001 50.2 5.9001 50.3 5.1001 50.4C4.5001 50.5 4.0001 49.8 4.3001 49.2C4.6001 48.5 4.8001 47.7999 5.0001 47.0999C5.8001 44.6999 6.4001 41.9 6.6001 39.4C2.9001 35.3 0.600098 29.9 0.600098 24.1C0.700098 11.1 11.6001 0.699951 25.1001 0.699951C38.6001 0.699951 49.6001 11.1 49.6001 24C49.6001 36.9 38.7001 47.2999 25.1001 47.2999C22.7001 47.2999 20.3001 46.9999 18.0001 46.2999C16.4001 47.1999 12.9001 48.8 7.3001 50Z" fill="#1C1C1E" stroke="#1D1D1B" stroke-miterlimit="10"/>
</g>
<defs>
<clipPath id="clip0">
<rect width="50" height="51" fill="white"/>
</clipPath>
</defs>
</svg>
