<svg width="15" height="17" viewBox="0 0 15 17" fill="none" xmlns="http://www.w3.org/2000/svg">
<path d="M13.8984 7.82192L7.77829 13.942C6.56931 15.151 4.6082 15.3418 3.28914 14.2541C1.77917 13.0102 1.69802 10.7656 3.05162 9.41203L10.2014 2.26226C10.9592 1.50448 12.1914 1.35994 13.0187 2.03685C13.9733 2.81789 14.0254 4.22365 13.1751 5.07399L7.10125 11.1478C6.7831 11.466 6.26244 11.4659 5.94425 11.1477C5.62605 10.8295 5.62601 10.3089 5.94416 9.99074L11.0057 4.92921C11.2429 4.69204 11.2428 4.29866 11.0056 4.06146C10.7684 3.82426 10.3751 3.82423 10.1379 4.0614L5.15734 9.04194C4.39955 9.79973 4.25501 11.0319 4.93192 11.8592C5.71296 12.8138 7.11872 12.866 7.96906 12.0156L13.9446 6.04014C15.1535 4.83116 15.3443 2.87005 14.2566 1.55099C13.007 0.035232 10.7682 -0.0401319 9.41456 1.31347L2.31685 8.41118C0.65667 10.0714 0.384964 12.7729 1.88341 14.5838C3.61327 16.6607 6.68512 16.7708 8.54777 14.9082L14.7662 8.68973C15.0034 8.45256 15.0034 8.05918 14.7662 7.82198C14.529 7.58478 14.1356 7.58475 13.8984 7.82192Z" fill="white"/>
</svg>
