<svg width="49" height="49" viewBox="0 0 49 49" fill="none" xmlns="http://www.w3.org/2000/svg">
<g filter="url(#filter0_b)">
<path d="M42.875 9.1875H6.125C5.31277 9.1875 4.53382 9.51016 3.95949 10.0845C3.38516 10.6588 3.0625 11.4378 3.0625 12.25V36.75C3.0625 37.5622 3.38516 38.3412 3.95949 38.9155C4.53382 39.4898 5.31277 39.8125 6.125 39.8125H42.875C43.6872 39.8125 44.4662 39.4898 45.0405 38.9155C45.6148 38.3412 45.9375 37.5622 45.9375 36.75V12.25C45.9375 11.4378 45.6148 10.6588 45.0405 10.0845C44.4662 9.51016 43.6872 9.1875 42.875 9.1875ZM39.5062 12.25L24.5 22.6319L9.49375 12.25H39.5062ZM6.125 36.75V13.6434L23.6272 25.7556C23.8835 25.9334 24.188 26.0287 24.5 26.0287C24.812 26.0287 25.1165 25.9334 25.3728 25.7556L42.875 13.6434V36.75H6.125Z" fill="white"/>
</g>
<defs>
<filter id="filter0_b" x="-4" y="-4" width="57" height="57" filterUnits="userSpaceOnUse" color-interpolation-filters="sRGB">
<feFlood flood-opacity="0" result="BackgroundImageFix"/>
<feGaussianBlur in="BackgroundImage" stdDeviation="2"/>
<feComposite in2="SourceAlpha" operator="in" result="effect1_backgroundBlur"/>
<feBlend mode="normal" in="SourceGraphic" in2="effect1_backgroundBlur" result="shape"/>
</filter>
</defs>
</svg>
