<svg width="24" height="24" viewBox="0 0 24 24" fill="none" xmlns="http://www.w3.org/2000/svg">
<path d="M14.04 17.7333C14.508 17.2133 14.508 16.3867 14.04 15.8667L11.76 13.3333L22.8 13.3333C23.46 13.3333 24 12.7333 24 12C24 11.2667 23.46 10.6667 22.8 10.6667L11.76 10.6667L14.04 8.13333C14.508 7.61333 14.508 6.78667 14.04 6.26667C13.572 5.74667 12.828 5.74667 12.36 6.26667L8.052 11.0533C7.584 11.5733 7.584 12.4133 8.052 12.9333L12.36 17.7333C12.828 18.2533 13.572 18.2533 14.04 17.7333ZM2.4 2.66667L10.8 2.66667C11.46 2.66667 12 2.06667 12 1.33333C12 0.599998 11.46 0 10.8 0L2.4 0C1.08 0 0 1.2 0 2.66667L0 21.3333C0 22.8 1.08 24 2.4 24L10.8 24C11.46 24 12 23.4 12 22.6667C12 21.9333 11.46 21.3333 10.8 21.3333L2.4 21.3333L2.4 2.66667Z" fill="white"/>
</svg>
