<svg width="231" height="220" viewBox="0 0 231 220" fill="none" xmlns="http://www.w3.org/2000/svg">
<path d="M99.981 192.772C84.375 183.266 81.18 178.061 67.634 164.36C-13.8978 81.898 57.157 28.457 92.866 41.376C99.595 43.81 107.269 51.311 115.888 63.877C118.083 53.546 124.354 45.251 134.702 38.992C206.701 -4.55687 240.679 91.189 171.306 153.353C154.603 168.325 127.881 193.281 116.844 203.597" stroke="#7D219D" stroke-width="16" stroke-linecap="round" stroke-linejoin="round"/>
<path d="M48.368 89.004C49.7027 89.004 50.7107 89.1907 51.392 89.564C52.0733 89.9373 52.414 90.5953 52.414 91.538C52.414 92.1073 52.2787 92.588 52.008 92.98C51.7467 93.372 51.3687 93.61 50.874 93.694V93.764C51.21 93.8293 51.5133 93.946 51.784 94.114C52.0547 94.282 52.2693 94.5247 52.428 94.842C52.5867 95.1593 52.666 95.5793 52.666 96.102C52.666 97.0073 52.3393 97.7167 51.686 98.23C51.0327 98.7433 50.1367 99 48.998 99H45.26V89.004H48.368ZM48.606 92.966C49.222 92.966 49.6467 92.868 49.88 92.672C50.1227 92.476 50.244 92.1913 50.244 91.818C50.244 91.4353 50.104 91.16 49.824 90.992C49.544 90.824 49.1007 90.74 48.494 90.74H47.374V92.966H48.606ZM47.374 94.646V97.25H48.76C49.3947 97.25 49.838 97.1287 50.09 96.886C50.342 96.634 50.468 96.3027 50.468 95.892C50.468 95.5187 50.3373 95.22 50.076 94.996C49.824 94.7627 49.362 94.646 48.69 94.646H47.374ZM61.4423 95.164C61.4423 96.4333 61.1063 97.4133 60.4343 98.104C59.7716 98.7947 58.8663 99.14 57.7183 99.14C57.0089 99.14 56.3743 98.986 55.8143 98.678C55.2636 98.37 54.8296 97.922 54.5123 97.334C54.1949 96.7367 54.0363 96.0133 54.0363 95.164C54.0363 93.8947 54.3676 92.9193 55.0303 92.238C55.6929 91.5567 56.6029 91.216 57.7603 91.216C58.4789 91.216 59.1136 91.37 59.6643 91.678C60.2149 91.986 60.6489 92.434 60.9663 93.022C61.2836 93.6007 61.4423 94.3147 61.4423 95.164ZM56.1643 95.164C56.1643 95.92 56.2856 96.494 56.5283 96.886C56.7803 97.2687 57.1863 97.46 57.7463 97.46C58.2969 97.46 58.6936 97.2687 58.9363 96.886C59.1883 96.494 59.3143 95.92 59.3143 95.164C59.3143 94.408 59.1883 93.8433 58.9363 93.47C58.6936 93.0873 58.2923 92.896 57.7323 92.896C57.1816 92.896 56.7803 93.0873 56.5283 93.47C56.2856 93.8433 56.1643 94.408 56.1643 95.164ZM65.9522 91.216C66.5029 91.216 67.0162 91.2907 67.4922 91.44C67.9776 91.58 68.3649 91.7993 68.6542 92.098C68.9529 92.3967 69.1022 92.7793 69.1022 93.246C69.1022 93.7033 68.9622 94.0673 68.6822 94.338C68.4116 94.6087 68.0429 94.8047 67.5762 94.926V94.996C67.9029 95.0707 68.1969 95.178 68.4582 95.318C68.7196 95.4487 68.9249 95.6307 69.0742 95.864C69.2329 96.088 69.3122 96.3913 69.3122 96.774C69.3122 97.194 69.1769 97.586 68.9062 97.95C68.6449 98.3047 68.2342 98.594 67.6742 98.818C67.1236 99.0327 66.4142 99.14 65.5462 99.14C64.2769 99.14 63.2969 98.9813 62.6062 98.664V96.942C62.9236 97.0913 63.3109 97.2267 63.7682 97.348C64.2349 97.4693 64.7296 97.53 65.2522 97.53C65.8216 97.53 66.3022 97.4647 66.6942 97.334C67.0862 97.2033 67.2822 96.9747 67.2822 96.648C67.2822 96.0413 66.5589 95.738 65.1122 95.738H64.3002V94.296H65.0702C65.7609 94.296 66.2929 94.24 66.6662 94.128C67.0489 94.016 67.2402 93.806 67.2402 93.498C67.2402 93.2553 67.1189 93.0733 66.8762 92.952C66.6336 92.8213 66.2369 92.756 65.6862 92.756C65.3222 92.756 64.9256 92.798 64.4962 92.882C64.0669 92.966 63.6609 93.0873 63.2782 93.246L62.6622 91.79C63.1009 91.622 63.5816 91.4867 64.1042 91.384C64.6269 91.272 65.2429 91.216 65.9522 91.216ZM77.7078 93.358C77.7078 93.7687 77.5772 94.1187 77.3158 94.408C77.0638 94.6973 76.6858 94.884 76.1818 94.968V95.024C76.7138 95.0893 77.1385 95.2713 77.4558 95.57C77.7825 95.8687 77.9458 96.2513 77.9458 96.718C77.9458 97.1567 77.8292 97.5487 77.5958 97.894C77.3718 98.2393 77.0125 98.51 76.5178 98.706C76.0232 98.902 75.3745 99 74.5718 99H70.9318V91.356H74.5718C75.1692 91.356 75.7012 91.4213 76.1678 91.552C76.6438 91.6733 77.0172 91.8787 77.2878 92.168C77.5678 92.4573 77.7078 92.854 77.7078 93.358ZM75.5938 93.526C75.5938 93.0593 75.2252 92.826 74.4878 92.826H73.0178V94.338H74.2498C74.6885 94.338 75.0198 94.2773 75.2438 94.156C75.4772 94.0253 75.5938 93.8153 75.5938 93.526ZM75.7898 96.606C75.7898 96.3073 75.6732 96.0927 75.4398 95.962C75.2065 95.822 74.8565 95.752 74.3898 95.752H73.0178V97.558H74.4318C74.8238 97.558 75.1458 97.488 75.3978 97.348C75.6592 97.1987 75.7898 96.9513 75.7898 96.606ZM83.9925 91.216C84.8512 91.216 85.5465 91.552 86.0785 92.224C86.6105 92.8867 86.8765 93.8667 86.8765 95.164C86.8765 96.4613 86.6012 97.4507 86.0505 98.132C85.4999 98.804 84.7952 99.14 83.9365 99.14C83.3859 99.14 82.9472 99.042 82.6205 98.846C82.2939 98.6407 82.0279 98.412 81.8225 98.16H81.7105C81.7852 98.552 81.8225 98.9253 81.8225 99.28V102.36H79.7365V91.356H81.4305L81.7245 92.35H81.8225C82.0279 92.042 82.3032 91.776 82.6485 91.552C82.9939 91.328 83.4419 91.216 83.9925 91.216ZM83.3205 92.882C82.7792 92.882 82.3965 93.05 82.1725 93.386C81.9579 93.722 81.8412 94.2353 81.8225 94.926V95.15C81.8225 95.8873 81.9299 96.4567 82.1445 96.858C82.3685 97.25 82.7699 97.446 83.3485 97.446C83.8245 97.446 84.1745 97.25 84.3985 96.858C84.6319 96.4567 84.7485 95.8827 84.7485 95.136C84.7485 93.6333 84.2725 92.882 83.3205 92.882ZM91.7319 91.202C92.7586 91.202 93.5426 91.426 94.0839 91.874C94.6346 92.3127 94.9099 92.9893 94.9099 93.904V99H93.4539L93.0479 97.964H92.9919C92.6652 98.3747 92.3199 98.6733 91.9559 98.86C91.5919 99.0467 91.0926 99.14 90.4579 99.14C89.7766 99.14 89.2119 98.944 88.7639 98.552C88.3159 98.1507 88.0919 97.5393 88.0919 96.718C88.0919 95.906 88.3766 95.3087 88.9459 94.926C89.5152 94.534 90.3692 94.3193 91.5079 94.282L92.8379 94.24V93.904C92.8379 93.5027 92.7306 93.2087 92.5159 93.022C92.3106 92.8353 92.0212 92.742 91.6479 92.742C91.2746 92.742 90.9106 92.798 90.5559 92.91C90.2012 93.0127 89.8466 93.1433 89.4919 93.302L88.8059 91.888C89.2166 91.6733 89.6692 91.5053 90.1639 91.384C90.6679 91.2627 91.1906 91.202 91.7319 91.202ZM92.0259 95.486C91.3539 95.5047 90.8872 95.626 90.6259 95.85C90.3646 96.074 90.2339 96.368 90.2339 96.732C90.2339 97.0493 90.3272 97.278 90.5139 97.418C90.7006 97.5487 90.9432 97.614 91.2419 97.614C91.6899 97.614 92.0679 97.4833 92.3759 97.222C92.6839 96.9513 92.8379 96.5733 92.8379 96.088V95.458L92.0259 95.486ZM108.427 91.356V97.474H109.547V101.744H107.671V99H97.0451V91.356H99.1311V97.432H101.693V91.356H103.779V97.432H106.341V91.356H108.427ZM113.976 91.202C115.003 91.202 115.787 91.426 116.328 91.874C116.879 92.3127 117.154 92.9893 117.154 93.904V99H115.698L115.292 97.964H115.236C114.909 98.3747 114.564 98.6733 114.2 98.86C113.836 99.0467 113.337 99.14 112.702 99.14C112.021 99.14 111.456 98.944 111.008 98.552C110.56 98.1507 110.336 97.5393 110.336 96.718C110.336 95.906 110.621 95.3087 111.19 94.926C111.759 94.534 112.613 94.3193 113.752 94.282L115.082 94.24V93.904C115.082 93.5027 114.975 93.2087 114.76 93.022C114.555 92.8353 114.265 92.742 113.892 92.742C113.519 92.742 113.155 92.798 112.8 92.91C112.445 93.0127 112.091 93.1433 111.736 93.302L111.05 91.888C111.461 91.6733 111.913 91.5053 112.408 91.384C112.912 91.2627 113.435 91.202 113.976 91.202ZM114.27 95.486C113.598 95.5047 113.131 95.626 112.87 95.85C112.609 96.074 112.478 96.368 112.478 96.732C112.478 97.0493 112.571 97.278 112.758 97.418C112.945 97.5487 113.187 97.614 113.486 97.614C113.934 97.614 114.312 97.4833 114.62 97.222C114.928 96.9513 115.082 96.5733 115.082 96.088V95.458L114.27 95.486ZM126.611 88.066C126.565 88.5513 126.429 88.9807 126.205 89.354C125.981 89.718 125.631 90.0027 125.155 90.208C124.679 90.4133 124.04 90.516 123.237 90.516C122.416 90.516 121.772 90.418 121.305 90.222C120.848 90.0167 120.521 89.732 120.325 89.368C120.129 89.004 120.013 88.57 119.975 88.066H121.837C121.884 88.5793 122.015 88.92 122.229 89.088C122.444 89.256 122.794 89.34 123.279 89.34C123.681 89.34 124.007 89.2513 124.259 89.074C124.521 88.8873 124.675 88.5513 124.721 88.066H126.611ZM121.305 94.38C121.305 94.5387 121.296 94.7347 121.277 94.968C121.268 95.2013 121.254 95.4393 121.235 95.682C121.226 95.9247 121.212 96.1393 121.193 96.326C121.175 96.5127 121.161 96.6433 121.151 96.718L124.679 91.356H127.185V99H125.169V95.948C125.169 95.696 125.179 95.4207 125.197 95.122C125.216 94.814 125.235 94.5293 125.253 94.268C125.281 93.9973 125.3 93.792 125.309 93.652L121.795 99H119.289V91.356H121.305V94.38ZM132.473 99.14C131.335 99.14 130.453 98.8273 129.827 98.202C129.211 97.5673 128.903 96.5733 128.903 95.22C128.903 94.2867 129.062 93.526 129.379 92.938C129.697 92.35 130.135 91.916 130.695 91.636C131.265 91.356 131.918 91.216 132.655 91.216C133.178 91.216 133.631 91.2673 134.013 91.37C134.405 91.4727 134.746 91.594 135.035 91.734L134.419 93.344C134.093 93.2133 133.785 93.106 133.495 93.022C133.215 92.938 132.935 92.896 132.655 92.896C131.573 92.896 131.031 93.666 131.031 95.206C131.031 95.9713 131.171 96.536 131.451 96.9C131.741 97.264 132.142 97.446 132.655 97.446C133.094 97.446 133.481 97.39 133.817 97.278C134.153 97.1567 134.48 96.9933 134.797 96.788V98.566C134.48 98.7713 134.144 98.916 133.789 99C133.444 99.0933 133.005 99.14 132.473 99.14ZM137.719 99H135.465L137.523 95.976C137.131 95.8173 136.781 95.5607 136.473 95.206C136.174 94.842 136.025 94.3473 136.025 93.722C136.025 92.9567 136.314 92.3733 136.893 91.972C137.472 91.5613 138.214 91.356 139.119 91.356H142.675V99H140.589V96.158H139.441L137.719 99ZM138.069 93.736C138.069 94.0533 138.195 94.3053 138.447 94.492C138.699 94.6693 139.026 94.758 139.427 94.758H140.589V92.826H139.161C138.788 92.826 138.512 92.9193 138.335 93.106C138.158 93.2833 138.069 93.4933 138.069 93.736ZM155.163 91.356V99H153.077V92.924H150.305V99H148.219V91.356H155.163ZM164.296 95.164C164.296 96.4333 163.96 97.4133 163.288 98.104C162.625 98.7947 161.72 99.14 160.572 99.14C159.862 99.14 159.228 98.986 158.668 98.678C158.117 98.37 157.683 97.922 157.366 97.334C157.048 96.7367 156.89 96.0133 156.89 95.164C156.89 93.8947 157.221 92.9193 157.884 92.238C158.546 91.5567 159.456 91.216 160.614 91.216C161.332 91.216 161.967 91.37 162.518 91.678C163.068 91.986 163.502 92.434 163.82 93.022C164.137 93.6007 164.296 94.3147 164.296 95.164ZM159.018 95.164C159.018 95.92 159.139 96.494 159.382 96.886C159.634 97.2687 160.04 97.46 160.6 97.46C161.15 97.46 161.547 97.2687 161.79 96.886C162.042 96.494 162.168 95.92 162.168 95.164C162.168 94.408 162.042 93.8433 161.79 93.47C161.547 93.0873 161.146 92.896 160.586 92.896C160.035 92.896 159.634 93.0873 159.382 93.47C159.139 93.8433 159.018 94.408 159.018 95.164ZM168.806 91.216C169.356 91.216 169.87 91.2907 170.346 91.44C170.831 91.58 171.218 91.7993 171.508 92.098C171.806 92.3967 171.956 92.7793 171.956 93.246C171.956 93.7033 171.816 94.0673 171.536 94.338C171.265 94.6087 170.896 94.8047 170.43 94.926V94.996C170.756 95.0707 171.05 95.178 171.312 95.318C171.573 95.4487 171.778 95.6307 171.928 95.864C172.086 96.088 172.166 96.3913 172.166 96.774C172.166 97.194 172.03 97.586 171.76 97.95C171.498 98.3047 171.088 98.594 170.528 98.818C169.977 99.0327 169.268 99.14 168.4 99.14C167.13 99.14 166.15 98.9813 165.46 98.664V96.942C165.777 97.0913 166.164 97.2267 166.622 97.348C167.088 97.4693 167.583 97.53 168.106 97.53C168.675 97.53 169.156 97.4647 169.548 97.334C169.94 97.2033 170.136 96.9747 170.136 96.648C170.136 96.0413 169.412 95.738 167.966 95.738H167.154V94.296H167.924C168.614 94.296 169.146 94.24 169.52 94.128C169.902 94.016 170.094 93.806 170.094 93.498C170.094 93.2553 169.972 93.0733 169.73 92.952C169.487 92.8213 169.09 92.756 168.54 92.756C168.176 92.756 167.779 92.798 167.35 92.882C166.92 92.966 166.514 93.0873 166.132 93.246L165.516 91.79C165.954 91.622 166.435 91.4867 166.958 91.384C167.48 91.272 168.096 91.216 168.806 91.216ZM184.649 91.356L181.835 95.024L184.915 99H182.689L179.777 95.122V99H177.831V95.122L174.919 99H172.693L175.773 95.024L172.959 91.356H175.115L177.831 95.066V91.356H179.777V95.066L182.493 91.356H184.649ZM188.885 91.216C189.939 91.216 190.775 91.5193 191.391 92.126C192.007 92.7233 192.315 93.5773 192.315 94.688V95.696H187.387C187.405 96.284 187.578 96.746 187.905 97.082C188.241 97.418 188.703 97.586 189.291 97.586C189.785 97.586 190.233 97.5393 190.635 97.446C191.036 97.3433 191.451 97.1893 191.881 96.984V98.594C191.507 98.7807 191.111 98.916 190.691 99C190.28 99.0933 189.781 99.14 189.193 99.14C188.427 99.14 187.751 99 187.163 98.72C186.575 98.4307 186.113 97.9967 185.777 97.418C185.441 96.8393 185.273 96.1113 185.273 95.234C185.273 94.338 185.422 93.596 185.721 93.008C186.029 92.4107 186.453 91.9627 186.995 91.664C187.536 91.3653 188.166 91.216 188.885 91.216ZM188.899 92.7C188.497 92.7 188.161 92.8307 187.891 93.092C187.629 93.3533 187.475 93.7593 187.429 94.31H190.355C190.345 93.8433 190.224 93.4607 189.991 93.162C189.757 92.854 189.393 92.7 188.899 92.7ZM193.95 96.522V90.138H195.714V96.522H193.95ZM195.924 98.272C195.924 98.2813 195.924 98.2907 195.924 98.3C195.924 98.5987 195.831 98.8413 195.644 99.028C195.457 99.2147 195.21 99.308 194.902 99.308C194.585 99.308 194.328 99.21 194.132 99.014C193.945 98.8273 193.852 98.5753 193.852 98.258V98.23C193.871 97.9407 193.973 97.7073 194.16 97.53C194.356 97.3527 194.603 97.264 194.902 97.264C195.21 97.264 195.457 97.3573 195.644 97.544C195.831 97.7307 195.924 97.9733 195.924 98.272Z" fill="#7D219D"/>
</svg>