<svg width="181" height="118" viewBox="0 0 181 118" fill="none" xmlns="http://www.w3.org/2000/svg">
<path d="M159.842 40C142.5 54.6267 128.712 79.4264 142.847 96.9455C153.194 106.576 168.791 104.545 174.598 92.0813C185.138 69.0354 154.493 62.2523 159.843 40.0001L159.842 40Z" fill="url(#paint0_linear_825_11395)"/>
<g filter="url(#filter0_f_825_11395)">
<path d="M156.4 99.4686C163.821 97.8616 165.853 92.628 167.819 87.3485C168.028 82.3946 174.227 82.7745 172.577 88.4759C170.027 95.0549 165.522 99.6288 156.401 99.4688L156.4 99.4686Z" fill="url(#paint1_radial_825_11395)" fill-opacity="0.4"/>
</g>
<path d="M20.016 94C38.016 94 49.896 84.208 49.896 67.072C49.896 49.504 37.584 39.712 19.008 39.712H5.472V94H20.016ZM16.272 49.648H19.512C32.616 49.648 38.952 56.2 38.952 67C38.952 78.232 31.392 84.28 19.512 84.28H16.272V49.648ZM68.5575 94V76.936C68.5575 70.888 70.7895 67.72 75.0375 67.72C76.8375 67.72 78.3495 68.368 79.8615 69.448L82.6695 59.44C80.7975 58.432 78.9975 57.856 77.4135 57.856C73.5255 57.856 71.2935 59.152 68.6295 62.392H68.4135L68.5575 58.792H58.1175V94H68.5575ZM92.6218 50.512C96.0778 50.512 99.0298 47.992 99.0298 44.392C99.0298 40.936 96.1498 38.416 92.5498 38.416C89.0218 38.416 86.2138 41.008 86.2138 44.392C86.2138 47.992 89.0938 50.512 92.6218 50.512ZM97.8778 94V58.792H87.4378V94H97.8778ZM117.706 111.928V95.656C117.706 93.784 117.706 92.056 117.562 89.824H117.634C120.802 93.28 124.474 94.864 128.938 94.864C138.946 94.864 145.786 86.584 145.786 76.432C145.786 66.136 139.09 57.784 128.866 57.784C124.474 57.784 120.874 59.512 117.634 62.896H117.562L117.634 58.792H107.266V111.928H117.706ZM126.274 86.008C120.802 86.008 117.13 81.832 117.13 76.36C117.13 70.744 120.802 66.64 126.346 66.64C131.962 66.64 135.274 70.744 135.274 76.432C135.274 81.832 131.746 86.008 126.274 86.008Z" fill="white"/>
<defs>
<filter id="filter0_f_825_11395" x="149.018" y="76.5146" width="31.2189" height="30.34" filterUnits="userSpaceOnUse" color-interpolation-filters="sRGB">
<feFlood flood-opacity="0" result="BackgroundImageFix"/>
<feBlend mode="normal" in="SourceGraphic" in2="BackgroundImageFix" result="shape"/>
<feGaussianBlur stdDeviation="3.69095" result="effect1_foregroundBlur_825_11395"/>
</filter>
<linearGradient id="paint0_linear_825_11395" x1="130.15" y1="77.2343" x2="173.777" y2="78.7773" gradientUnits="userSpaceOnUse">
<stop stop-color="#DB00FF"/>
<stop offset="0.166667" stop-color="#A700C7"/>
<stop offset="0.828125" stop-color="#2541DB"/>
<stop offset="1" stop-color="#4A93FF"/>
</linearGradient>
<radialGradient id="paint1_radial_825_11395" cx="0" cy="0" r="1" gradientUnits="userSpaceOnUse" gradientTransform="translate(169.51 87.9212) rotate(9.79517) scale(12.53 19.8083)">
<stop stop-color="#D5E5FF"/>
<stop offset="1" stop-color="#D5E5FF" stop-opacity="0"/>
</radialGradient>
</defs>
</svg>
