<svg width="310" height="295" viewBox="0 0 310 295" fill="none" xmlns="http://www.w3.org/2000/svg">
<path d="M211.586 158.703C205.388 165.096 195.847 165.096 189.649 158.611L188.752 157.684C145.94 113.679 117.969 84.867 119.029 48.9216C119.518 33.1722 126.613 18.0714 138.111 9.17771C159.64 -7.49802 186.224 0.283991 200.577 19.3684C214.929 0.283991 241.514 -7.59066 263.042 9.17771C274.54 18.0714 281.635 33.1722 282.124 48.9216C283.266 84.867 255.214 113.679 212.401 157.87L211.586 158.703Z" fill="url(#paint0_linear_874_11462)"/>
<path d="M179.669 240.259C172.028 244.829 162.812 242.36 158.504 234.492L157.877 233.365C127.913 179.778 108.352 144.708 118.68 110.262C123.229 95.1761 133.99 82.4261 147.398 76.8113C172.509 66.2758 196.174 80.6733 205.098 102.822C223.9 88.1026 251.617 87.3768 268.072 109.146C276.877 120.712 279.821 137.135 276.218 152.474C268.017 187.49 233.463 208.06 180.672 239.664L179.669 240.259Z" fill="url(#paint1_linear_874_11462)"/>
<path d="M161.506 211.561C157.174 219.34 147.958 221.809 140.294 217.149L139.187 216.487C86.4442 185.061 51.9693 164.471 43.69 129.476C40.0864 114.136 43.0309 97.7138 51.8354 86.1471C68.3144 64.4676 96.0072 65.1039 114.81 79.8234C123.734 57.6746 147.374 43.1876 172.509 53.8127C185.918 59.4274 196.679 72.1774 201.228 87.2634C211.634 121.689 191.995 156.779 162.078 210.545L161.506 211.561Z" fill="url(#paint2_linear_874_11462)"/>
<path d="M177.688 256.122C177.826 265.025 171.079 271.772 162.111 271.568L160.822 271.548C99.4325 270.704 59.281 270.109 34.6134 243.942C23.8229 232.46 18.1617 216.765 20.0033 202.346C23.4348 175.332 47.7356 162.036 71.379 165.382C68.0329 141.739 81.2628 117.373 108.343 114.007C122.762 112.165 138.457 117.826 149.939 128.617C176.164 153.227 176.701 193.436 177.675 254.956L177.688 256.122Z" fill="url(#paint3_linear_874_11462)"/>
<path d="M178.407 269.473C170.088 272.648 161.441 268.615 158.565 260.119L158.143 258.9C137.939 200.924 124.766 162.991 140.918 130.861C148.017 116.794 160.829 106.106 175.008 102.905C201.567 96.8904 222.372 115.178 227.315 138.54C248.388 127.31 275.809 131.408 288.234 155.703C294.897 168.623 294.945 185.308 288.732 199.788C274.576 232.848 236.975 247.105 179.498 269.062L178.407 269.473Z" fill="url(#paint4_linear_874_11462)"/>
<defs>
<linearGradient id="paint0_linear_874_11462" x1="90.9347" y1="96.6238" x2="269.348" y2="106.587" gradientUnits="userSpaceOnUse">
<stop stop-color="#FF0600"/>
<stop offset="0.166667" stop-color="#A700C7"/>
<stop offset="0.828125" stop-color="#2541DB"/>
<stop offset="1" stop-color="#4A93FF"/>
</linearGradient>
<linearGradient id="paint1_linear_874_11462" x1="79.1964" y1="149.068" x2="248.952" y2="204.868" gradientUnits="userSpaceOnUse">
<stop stop-color="#FF0600"/>
<stop offset="0.166667" stop-color="#A700C7"/>
<stop offset="0.828125" stop-color="#2541DB"/>
<stop offset="1" stop-color="#4A93FF"/>
</linearGradient>
<linearGradient id="paint2_linear_874_11462" x1="28.899" y1="182.824" x2="203.812" y2="146.271" gradientUnits="userSpaceOnUse">
<stop stop-color="#FF0600"/>
<stop offset="0.166667" stop-color="#A700C7"/>
<stop offset="0.828125" stop-color="#2541DB"/>
<stop offset="1" stop-color="#4A93FF"/>
</linearGradient>
<linearGradient id="paint3_linear_874_11462" x1="48.4781" y1="297.539" x2="181.68" y2="178.426" gradientUnits="userSpaceOnUse">
<stop stop-color="#FF0600"/>
<stop offset="0.166667" stop-color="#A700C7"/>
<stop offset="0.828125" stop-color="#2541DB"/>
<stop offset="1" stop-color="#4A93FF"/>
</linearGradient>
<linearGradient id="paint4_linear_874_11462" x1="95.2956" y1="162.221" x2="252.783" y2="246.651" gradientUnits="userSpaceOnUse">
<stop stop-color="#FF0600"/>
<stop offset="0.166667" stop-color="#A700C7"/>
<stop offset="0.828125" stop-color="#2541DB"/>
<stop offset="1" stop-color="#4A93FF"/>
</linearGradient>
</defs>
</svg>
