<svg width="520" height="420" viewBox="0 0 520 420" fill="none" xmlns="http://www.w3.org/2000/svg">
<path d="M348.584 283.7C342.386 290.092 332.845 290.092 326.648 283.607L325.751 282.681C282.938 238.676 254.967 209.864 256.027 173.918C256.517 158.169 263.611 143.068 275.11 134.174C296.638 117.499 323.223 125.281 337.575 144.365C351.927 125.281 378.512 117.406 400.04 134.174C411.539 143.068 418.633 158.169 419.123 173.918C420.264 209.864 392.212 238.676 349.399 282.866L348.584 283.7Z" fill="url(#paint0_linear_874_11462)"/>
<path d="M304.668 397.256C297.027 401.826 287.811 399.357 283.503 391.489L282.876 390.362C252.912 336.775 233.351 301.705 243.679 267.259C248.227 252.173 258.989 239.423 272.397 233.808C297.508 223.273 321.172 237.67 330.096 259.819C348.899 245.1 376.616 244.374 393.071 266.143C401.875 277.71 404.82 294.132 401.216 309.471C393.016 344.487 358.462 365.057 305.671 396.661L304.668 397.256Z" fill="url(#paint1_linear_874_11462)"/>
<path d="M310.505 320.558C306.173 328.337 296.957 330.806 289.292 326.147L288.186 325.484C235.443 294.059 200.968 273.468 192.689 238.473C189.085 223.133 192.03 206.711 200.834 195.144C217.313 173.465 245.006 174.101 263.809 188.82C272.733 166.672 296.373 152.185 321.508 162.81C334.916 168.424 345.678 181.174 350.227 196.261C360.633 230.686 340.993 265.776 311.077 319.542L310.505 320.558Z" fill="url(#paint2_linear_874_11462)"/>
<path d="M468.505 280.558C464.173 288.337 454.957 290.806 447.292 286.146L446.186 285.483C393.443 254.058 358.968 233.467 350.689 198.472C347.085 183.133 350.03 166.71 358.834 155.144C375.313 133.464 403.006 134.1 421.809 148.82C430.733 126.671 454.373 112.184 479.508 122.809C492.916 128.424 503.678 141.174 508.227 156.26C518.633 190.685 498.993 225.776 469.077 279.542L468.505 280.558Z" fill="url(#paint3_linear_874_11462)"/>
<path d="M297.687 395.123C297.825 404.025 291.078 410.772 282.11 410.569L280.821 410.548C219.431 409.704 179.28 409.11 154.612 382.943C143.822 371.46 138.16 355.766 140.002 341.347C143.434 314.332 167.734 301.037 191.378 304.383C188.032 280.739 201.262 256.373 228.342 253.007C242.761 251.165 258.455 256.827 269.938 267.617C296.162 292.227 296.7 332.436 297.674 393.957L297.687 395.123Z" fill="url(#paint4_linear_874_11462)"/>
<path d="M353.931 389.959C345.613 393.133 336.966 389.101 334.089 380.605L333.668 379.386C313.464 321.41 300.29 283.477 316.442 251.347C323.542 237.28 336.354 226.592 350.533 223.391C377.092 217.376 397.897 235.664 402.839 259.026C423.912 247.795 451.334 251.894 463.759 276.189C470.421 289.109 470.469 305.793 464.257 320.274C450.1 353.334 412.5 367.591 355.023 389.548L353.931 389.959Z" fill="url(#paint5_linear_874_11462)"/>
<path d="M198.505 365.558C194.173 373.337 184.957 375.806 177.292 371.146L176.186 370.483C123.443 339.058 88.9681 318.467 80.6887 283.472C77.0851 268.133 80.0297 251.71 88.8342 240.144C105.313 218.464 133.006 219.1 151.809 233.82C160.733 211.671 184.373 197.184 209.508 207.809C222.916 213.424 233.678 226.174 238.227 241.26C248.633 275.685 228.993 310.776 199.077 364.542L198.505 365.558Z" fill="url(#paint6_linear_874_11462)"/>
<path d="M183.637 262.796C175.626 266.683 166.661 263.42 163.055 255.206L162.529 254.029C137.349 198.034 120.919 161.393 134.21 127.978C140.056 113.346 151.887 101.582 165.734 97.1577C191.668 88.8509 213.987 105.256 220.947 128.098C240.961 115.074 268.636 116.766 283.131 139.887C290.894 152.177 292.396 168.793 287.469 183.76C276.248 217.928 240.033 235.408 184.688 262.291L183.637 262.796Z" fill="url(#paint7_linear_874_11462)"/>
<path d="M318.116 173.81C315.2 182.222 306.553 186.255 298.196 182.997L296.991 182.536C239.592 160.747 202.066 146.455 187.835 113.43C181.623 98.9492 181.671 82.2649 188.333 69.3451C200.797 45.1334 228.18 40.9512 249.253 52.182C254.195 28.82 274.961 10.448 301.559 16.547C315.739 19.7481 328.55 30.4357 335.65 44.5027C351.876 76.5979 338.628 114.566 318.503 172.71L318.116 173.81Z" fill="url(#paint8_linear_874_11462)"/>
<path d="M375.669 184.259C368.028 188.829 358.812 186.36 354.504 178.492L353.877 177.365C323.913 123.778 304.352 88.7084 314.68 54.2621C319.229 39.1761 329.99 26.4261 343.398 20.8114C368.509 10.2758 392.174 24.6733 401.098 46.8221C419.9 32.1026 447.617 31.3768 464.072 53.1458C472.877 64.7125 475.821 81.135 472.218 96.4743C464.017 131.49 429.463 152.06 376.672 183.664L375.669 184.259Z" fill="url(#paint9_linear_874_11462)"/>
<path d="M99.6679 270.259C92.027 274.829 82.811 272.36 78.503 264.492L77.8763 263.365C47.9121 209.778 28.3514 174.708 38.6788 140.262C43.2276 125.176 53.9889 112.426 67.3972 106.811C92.5082 96.2758 116.173 110.673 125.097 132.822C143.899 118.103 171.616 117.377 188.071 139.146C196.876 150.712 199.82 167.135 196.217 182.474C188.016 217.49 153.462 238.06 100.671 269.664L99.6679 270.259Z" fill="url(#paint10_linear_874_11462)"/>
<path d="M118.738 403.547C113.744 410.919 104.348 412.575 97.1185 407.265L96.0742 406.509C46.2707 370.606 13.7217 347.089 8.52382 311.505C6.27083 295.91 10.6355 279.807 20.4146 269.052C38.7204 248.891 66.2524 251.938 83.7007 268.241C94.521 246.954 119.334 234.582 143.448 247.358C156.315 254.12 165.925 267.759 169.141 283.184C176.507 318.385 153.884 351.631 119.396 402.584L118.738 403.547Z" fill="url(#paint11_linear_874_11462)"/>
<defs>
<linearGradient id="paint0_linear_874_11462" x1="227.933" y1="221.62" x2="406.346" y2="231.583" gradientUnits="userSpaceOnUse">
<stop stop-color="#FF0600"/>
<stop offset="0.166667" stop-color="#A700C7"/>
<stop offset="0.828125" stop-color="#2541DB"/>
<stop offset="1" stop-color="#4A93FF"/>
</linearGradient>
<linearGradient id="paint1_linear_874_11462" x1="204.195" y1="306.065" x2="373.951" y2="361.865" gradientUnits="userSpaceOnUse">
<stop stop-color="#FF0600"/>
<stop offset="0.166667" stop-color="#A700C7"/>
<stop offset="0.828125" stop-color="#2541DB"/>
<stop offset="1" stop-color="#4A93FF"/>
</linearGradient>
<linearGradient id="paint2_linear_874_11462" x1="177.898" y1="291.821" x2="352.811" y2="255.268" gradientUnits="userSpaceOnUse">
<stop stop-color="#FF0600"/>
<stop offset="0.166667" stop-color="#A700C7"/>
<stop offset="0.828125" stop-color="#2541DB"/>
<stop offset="1" stop-color="#4A93FF"/>
</linearGradient>
<linearGradient id="paint3_linear_874_11462" x1="335.898" y1="251.82" x2="510.811" y2="215.267" gradientUnits="userSpaceOnUse">
<stop stop-color="#FF0600"/>
<stop offset="0.166667" stop-color="#A700C7"/>
<stop offset="0.828125" stop-color="#2541DB"/>
<stop offset="1" stop-color="#4A93FF"/>
</linearGradient>
<linearGradient id="paint4_linear_874_11462" x1="168.477" y1="436.539" x2="301.679" y2="317.427" gradientUnits="userSpaceOnUse">
<stop stop-color="#FF0600"/>
<stop offset="0.166667" stop-color="#A700C7"/>
<stop offset="0.828125" stop-color="#2541DB"/>
<stop offset="1" stop-color="#4A93FF"/>
</linearGradient>
<linearGradient id="paint5_linear_874_11462" x1="270.82" y1="282.707" x2="428.307" y2="367.137" gradientUnits="userSpaceOnUse">
<stop stop-color="#FF0600"/>
<stop offset="0.166667" stop-color="#A700C7"/>
<stop offset="0.828125" stop-color="#2541DB"/>
<stop offset="1" stop-color="#4A93FF"/>
</linearGradient>
<linearGradient id="paint6_linear_874_11462" x1="65.8978" y1="336.82" x2="240.811" y2="300.267" gradientUnits="userSpaceOnUse">
<stop stop-color="#FF0600"/>
<stop offset="0.166667" stop-color="#A700C7"/>
<stop offset="0.828125" stop-color="#2541DB"/>
<stop offset="1" stop-color="#4A93FF"/>
</linearGradient>
<linearGradient id="paint7_linear_874_11462" x1="91.4943" y1="163.195" x2="255.74" y2="233.578" gradientUnits="userSpaceOnUse">
<stop stop-color="#FF0600"/>
<stop offset="0.166667" stop-color="#A700C7"/>
<stop offset="0.828125" stop-color="#2541DB"/>
<stop offset="1" stop-color="#4A93FF"/>
</linearGradient>
<linearGradient id="paint8_linear_874_11462" x1="182.533" y1="168.536" x2="348.441" y2="102.165" gradientUnits="userSpaceOnUse">
<stop stop-color="#FF0600"/>
<stop offset="0.166667" stop-color="#A700C7"/>
<stop offset="0.828125" stop-color="#2541DB"/>
<stop offset="1" stop-color="#4A93FF"/>
</linearGradient>
<linearGradient id="paint9_linear_874_11462" x1="275.196" y1="93.0675" x2="444.952" y2="148.868" gradientUnits="userSpaceOnUse">
<stop stop-color="#FF0600"/>
<stop offset="0.166667" stop-color="#A700C7"/>
<stop offset="0.828125" stop-color="#2541DB"/>
<stop offset="1" stop-color="#4A93FF"/>
</linearGradient>
<linearGradient id="paint10_linear_874_11462" x1="-0.804589" y1="179.068" x2="168.951" y2="234.868" gradientUnits="userSpaceOnUse">
<stop stop-color="#FF0600"/>
<stop offset="0.166667" stop-color="#A700C7"/>
<stop offset="0.828125" stop-color="#2541DB"/>
<stop offset="1" stop-color="#4A93FF"/>
</linearGradient>
<linearGradient id="paint11_linear_874_11462" x1="-10.8604" y1="363.361" x2="166.573" y2="342.192" gradientUnits="userSpaceOnUse">
<stop stop-color="#FF0600"/>
<stop offset="0.166667" stop-color="#A700C7"/>
<stop offset="0.828125" stop-color="#2541DB"/>
<stop offset="1" stop-color="#4A93FF"/>
</linearGradient>
</defs>
</svg>
