<svg width="41" height="41" viewBox="0 0 41 41" fill="none" xmlns="http://www.w3.org/2000/svg">
<g filter="url(#filter0_b)">
<path d="M27.6571 3.52542e-07C25.6113 -0.000469065 23.5939 0.478548 21.7665 1.39866C19.9391 2.31878 18.3525 3.65441 17.1338 5.29853C15.9152 6.94264 15.0983 8.84952 14.7488 10.8664C14.3993 12.8832 14.5268 14.9539 15.1212 16.9126L0 32.0424V40.7812H8.73382L23.855 25.6514C25.6569 26.1987 27.5556 26.3508 29.4216 26.0975C31.2876 25.8441 33.0771 25.1913 34.6682 24.1833C36.2592 23.1754 37.6144 21.8361 38.6413 20.2568C39.6683 18.6774 40.3429 16.8951 40.6191 15.0313C40.8954 13.1675 40.7668 11.266 40.2422 9.45636C39.7176 7.64676 38.8092 5.97159 37.579 4.54501C36.3488 3.11844 34.8257 1.97399 33.1135 1.18966C31.4013 0.405335 29.5402 -0.000436613 27.6571 3.52542e-07ZM27.6571 23.3036C26.6549 23.303 25.6583 23.1548 24.6992 22.8637L23.0296 22.3569L21.7967 23.5905L17.1663 28.2235L15.159 26.2165L13.1007 28.276L15.1081 30.2844L12.7994 32.5944L10.7921 30.5859L8.73382 32.6454L10.7411 34.6539L7.52855 37.8683H2.91127V33.2484L17.1794 18.972L18.4138 17.7384L17.9072 16.0678C17.2851 14.0156 17.3255 11.8194 18.0228 9.79153C18.72 7.76366 20.0386 6.00741 21.7909 4.77261C23.5433 3.53781 25.6402 2.88734 27.7833 2.91372C29.9264 2.9401 32.0067 3.64199 33.7281 4.91956C35.4496 6.19712 36.7246 7.98529 37.3718 10.0297C38.019 12.0741 38.0054 14.2707 37.3329 16.3069C36.6605 18.3432 35.3634 20.1154 33.6263 21.3716C31.8892 22.6277 29.8004 23.3037 27.6571 23.3036Z" fill="white"/>
</g>
<defs>
<filter id="filter0_b" x="-4" y="-4" width="48.7609" height="48.7812" filterUnits="userSpaceOnUse" color-interpolation-filters="sRGB">
<feFlood flood-opacity="0" result="BackgroundImageFix"/>
<feGaussianBlur in="BackgroundImage" stdDeviation="2"/>
<feComposite in2="SourceAlpha" operator="in" result="effect1_backgroundBlur"/>
<feBlend mode="normal" in="SourceGraphic" in2="effect1_backgroundBlur" result="shape"/>
</filter>
</defs>
</svg>
