<svg width="36" height="36" viewBox="0 0 36 36" fill="none" xmlns="http://www.w3.org/2000/svg">
<path d="M18 0C8.064 0 0 8.064 0 18C0 27.936 8.064 36 18 36C27.936 36 36 27.936 36 18C36 8.064 27.936 0 18 0ZM9.126 29.304C9.9 27.684 14.616 26.1 18 26.1C21.384 26.1 26.118 27.684 26.874 29.304C24.426 31.248 21.348 32.4 18 32.4C14.652 32.4 11.574 31.248 9.126 29.304ZM29.448 26.694C26.874 23.562 20.628 22.5 18 22.5C15.372 22.5 9.126 23.562 6.552 26.694C4.716 24.282 3.6 21.276 3.6 18C3.6 10.062 10.062 3.6 18 3.6C25.938 3.6 32.4 10.062 32.4 18C32.4 21.276 31.284 24.282 29.448 26.694V26.694ZM18 7.2C14.508 7.2 11.7 10.008 11.7 13.5C11.7 16.992 14.508 19.8 18 19.8C21.492 19.8 24.3 16.992 24.3 13.5C24.3 10.008 21.492 7.2 18 7.2ZM18 16.2C16.506 16.2 15.3 14.994 15.3 13.5C15.3 12.006 16.506 10.8 18 10.8C19.494 10.8 20.7 12.006 20.7 13.5C20.7 14.994 19.494 16.2 18 16.2Z" fill="#FEFEFE"/>
</svg>
