<svg width="24" height="24" viewBox="0 0 24 24" fill="none" xmlns="http://www.w3.org/2000/svg">
<path d="M20.177 13.0485L20.1033 13.6219L20.5634 13.9719L22.8728 15.7285L20.7572 19.2887L17.9921 18.2086L17.4816 18.0091L17.0389 18.3321C16.4493 18.7623 15.8315 19.1246 15.173 19.3871L14.638 19.6004L14.554 20.1702L14.1369 23H9.86859L9.45142 20.1702L9.36742 19.6004L8.83242 19.3871C8.1669 19.1218 7.55238 18.7704 6.97632 18.3393L6.53118 18.0063L6.01335 18.2086L3.24826 19.2887L1.13263 15.7286L3.44201 13.9719L3.90213 13.6219L3.82845 13.0485C3.7818 12.6856 3.75025 12.3363 3.75025 12C3.75025 11.6637 3.7818 11.3144 3.82845 10.9515L3.90213 10.3781L3.44201 10.0281L1.13263 8.27145L3.24826 4.71128L6.01335 5.79145L6.52383 5.99087L6.96658 5.66787C7.55618 5.23774 8.17392 4.87542 8.83242 4.61291L9.36742 4.39963L9.45142 3.82984L9.86859 1H14.1369L14.554 3.82984L14.638 4.39963L15.173 4.61291C15.8385 4.87822 16.4531 5.22964 17.0291 5.66068L17.4743 5.99374L17.9921 5.79145L20.7572 4.71128L22.8728 8.27145L20.5634 10.0281L20.1033 10.3781L20.177 10.9515C20.2238 11.3154 20.2552 11.6523 20.2552 12C20.2552 12.3477 20.2238 12.6846 20.177 13.0485Z" stroke="white" stroke-width="2"/>
<circle cx="12" cy="12" r="4" stroke="white" stroke-width="2"/>
</svg>
