<svg width="282" height="248" viewBox="0 0 282 248" fill="none" xmlns="http://www.w3.org/2000/svg">
<path d="M169.586 158.703C163.388 165.096 153.847 165.096 147.649 158.611L146.752 157.684C103.94 113.679 75.969 84.867 77.0291 48.9216C77.5184 33.1722 84.613 18.0714 96.1113 9.17771C117.64 -7.49802 144.224 0.283991 158.577 19.3684C172.929 0.283991 199.514 -7.59066 221.042 9.17771C232.54 18.0714 239.635 33.1722 240.124 48.9216C241.266 84.867 213.214 113.679 170.401 157.87L169.586 158.703Z" fill="url(#paint0_linear_874_11461)"/>
<path d="M151.079 183.842C148.164 192.254 139.517 196.286 131.159 193.028L129.955 192.568C72.5558 170.779 35.0291 156.487 20.7987 123.461C14.5862 108.981 14.6343 92.2966 21.2965 79.3768C33.7606 55.1651 61.1431 50.9829 82.2162 62.2137C87.1585 38.8517 107.924 20.4798 134.522 26.5787C148.702 29.7798 161.514 40.4675 168.613 54.5344C184.839 86.6296 171.591 124.598 151.466 182.741L151.079 183.842Z" fill="url(#paint1_linear_874_11461)"/>
<path d="M172.669 224.259C165.028 228.829 155.812 226.36 151.504 218.492L150.877 217.365C120.913 163.778 101.352 128.708 111.68 94.2621C116.229 79.1761 126.99 66.4261 140.398 60.8113C165.509 50.2758 189.174 64.6733 198.098 86.8221C216.9 72.1026 244.617 71.3768 261.072 93.1458C269.877 104.712 272.821 121.135 269.218 136.474C261.017 171.49 226.463 192.06 173.672 223.664L172.669 224.259Z" fill="url(#paint2_linear_874_11461)"/>
<defs>
<linearGradient id="paint0_linear_874_11461" x1="48.9347" y1="96.6238" x2="227.348" y2="106.587" gradientUnits="userSpaceOnUse">
<stop stop-color="#FF0600"/>
<stop offset="0.166667" stop-color="#A700C7"/>
<stop offset="0.828125" stop-color="#2541DB"/>
<stop offset="1" stop-color="#4A93FF"/>
</linearGradient>
<linearGradient id="paint1_linear_874_11461" x1="15.4963" y1="178.568" x2="181.404" y2="112.196" gradientUnits="userSpaceOnUse">
<stop stop-color="#FF0600"/>
<stop offset="0.166667" stop-color="#A700C7"/>
<stop offset="0.828125" stop-color="#2541DB"/>
<stop offset="1" stop-color="#4A93FF"/>
</linearGradient>
<linearGradient id="paint2_linear_874_11461" x1="72.1964" y1="133.068" x2="241.952" y2="188.868" gradientUnits="userSpaceOnUse">
<stop stop-color="#FF0600"/>
<stop offset="0.166667" stop-color="#A700C7"/>
<stop offset="0.828125" stop-color="#2541DB"/>
<stop offset="1" stop-color="#4A93FF"/>
</linearGradient>
</defs>
</svg>
