<svg width="36" height="36" viewBox="0 0 36 36" fill="none" xmlns="http://www.w3.org/2000/svg">
<path d="M35.2014 0.825939C34.1365 -0.238907 32.4164 -0.238907 31.3515 0.825939L18 14.1502L4.64847 0.798635C3.58362 -0.266212 1.86348 -0.266212 0.798635 0.798635C-0.266212 1.86348 -0.266212 3.58362 0.798635 4.64847L14.1502 18L0.798635 31.3515C-0.266212 32.4164 -0.266212 34.1365 0.798635 35.2014C1.86348 36.2662 3.58362 36.2662 4.64847 35.2014L18 21.8498L31.3515 35.2014C32.4164 36.2662 34.1365 36.2662 35.2014 35.2014C36.2662 34.1365 36.2662 32.4164 35.2014 31.3515L21.8498 18L35.2014 4.64847C36.2389 3.61092 36.2389 1.86348 35.2014 0.825939V0.825939Z" fill="white"/>
</svg>
