<svg width="37" height="36" viewBox="0 0 37 36" fill="none" xmlns="http://www.w3.org/2000/svg">
<path d="M32.5386 2.02095C27.7884 -1.65108 21.9226 0.0625351 18.7559 4.26497C15.5891 0.0625351 9.72334 -1.67148 4.97316 2.02095C2.45413 3.97937 0.870742 7.2842 0.762783 10.7726C0.51088 18.6879 6.7005 25.0323 16.1469 34.7632L16.3268 34.9468C17.6943 36.3544 19.7995 36.3544 21.1669 34.9264L21.3649 34.7224C30.8112 25.0119 36.9829 18.6675 36.7489 10.7522C36.641 7.2842 35.0576 3.97937 32.5386 2.02095V2.02095ZM18.9358 31.7236L18.7559 31.9276L18.5759 31.7236C10.0112 22.9311 4.3614 17.1171 4.3614 11.2214C4.3614 7.14139 7.06036 4.08137 10.659 4.08137C13.4299 4.08137 16.1289 6.10099 17.0825 8.89581H20.4472C21.3829 6.10099 24.0818 4.08137 26.8528 4.08137C30.4514 4.08137 33.1503 7.14139 33.1503 11.2214C33.1503 17.1171 27.5005 22.9311 18.9358 31.7236Z" fill="white"/>
</svg>
