<svg width="18" height="18" viewBox="0 0 18 18" fill="none" xmlns="http://www.w3.org/2000/svg">
<path d="M13.1466 11.608H12.3505L12.0684 11.3231C13.2776 9.84582 13.9024 7.83036 13.5598 5.68827C13.0861 2.75477 10.7482 0.412194 7.92665 0.0534209C3.66402 -0.495291 0.0765657 3.26128 0.600577 7.72484C0.943199 10.6794 3.18032 13.1275 5.98177 13.6235C8.02742 13.9823 9.95216 13.328 11.363 12.0618L11.635 12.3572V13.1909L15.9178 17.6755C16.331 18.1082 17.0061 18.1082 17.4193 17.6755C17.8325 17.2429 17.8325 16.5359 17.4193 16.1032L13.1466 11.608ZM7.10033 11.608C4.59112 11.608 2.56562 9.48705 2.56562 6.85956C2.56562 4.23207 4.59112 2.11109 7.10033 2.11109C9.60953 2.11109 11.635 4.23207 11.635 6.85956C11.635 9.48705 9.60953 11.608 7.10033 11.608Z" fill="white"/>
</svg>
