<?xml version="1.0" encoding="utf-8"?>
<!-- Generator: Adobe Illustrator 25.0.0, SVG Export Plug-In . SVG Version: 6.00 Build 0)  -->
<svg version="1.1" id="Layer_1" xmlns="http://www.w3.org/2000/svg" xmlns:xlink="http://www.w3.org/1999/xlink" x="0px" y="0px"
	 viewBox="0 0 50 50" style="enable-background:new 0 0 50 50;" xml:space="preserve">
<style type="text/css">
	.st0{fill:#1C1C1E;}
</style>
<path class="st0" d="M33.9,0c-2.5,0-5,0.6-7.2,1.7c-2.2,1.1-4.2,2.8-5.7,4.8c-1.5,2-2.5,4.4-2.9,6.8c-0.4,2.5-0.3,5,0.5,7.4L0,39.3
	V50h10.7l18.5-18.5c2.2,0.7,4.5,0.9,6.8,0.5c2.3-0.3,4.5-1.1,6.4-2.3c2-1.2,3.6-2.9,4.9-4.8c1.3-1.9,2.1-4.1,2.4-6.4
	c0.3-2.3,0.2-4.6-0.5-6.8c-0.6-2.2-1.8-4.3-3.3-6s-3.4-3.2-5.5-4.1C38.5,0.5,36.2,0,33.9,0z M33.9,28.6c-1.2,0-2.5-0.2-3.6-0.5
	l-2-0.6l-1.5,1.5l-5.7,5.7l-2.5-2.5l-2.5,2.5l2.5,2.5L15.7,40l-2.5-2.5L10.7,40l2.5,2.5l-3.9,3.9H3.6v-5.7l17.5-17.5l1.5-1.5l-0.6-2
	c-0.8-2.5-0.7-5.2,0.1-7.7c0.9-2.5,2.5-4.6,4.6-6.2c2.1-1.5,4.7-2.3,7.4-2.3c2.6,0,5.2,0.9,7.3,2.5c2.1,1.6,3.7,3.8,4.5,6.3
	c0.8,2.5,0.8,5.2,0,7.7c-0.8,2.5-2.4,4.7-4.5,6.2C39.1,27.7,36.6,28.6,33.9,28.6z"/>
<path class="st0" d="M35.7,17.9c2,0,3.6-1.6,3.6-3.6c0-2-1.6-3.6-3.6-3.6c-2,0-3.6,1.6-3.6,3.6C32.1,16.3,33.7,17.9,35.7,17.9z"/>
</svg>
