<?xml version="1.0" encoding="utf-8"?>
<!-- Generator: Adobe Illustrator 25.0.0, SVG Export Plug-In . SVG Version: 6.00 Build 0)  -->
<svg version="1.1" id="Layer_1" xmlns="http://www.w3.org/2000/svg" xmlns:xlink="http://www.w3.org/1999/xlink" x="0px" y="0px"
	 viewBox="0 0 50 50" style="enable-background:new 0 0 50 50;" xml:space="preserve">
<style type="text/css">
	.st0{fill:#FFFFFF;}
</style>
<g>
	<path class="st0" d="M46.4,5.6H3.6C2.6,5.6,1.7,6,1,6.7C0.4,7.4,0,8.4,0,9.4v31.1c0,1,0.4,2,1,2.7c0.7,0.7,1.6,1.1,2.5,1.1h42.9
		c0.9,0,1.9-0.4,2.5-1.1c0.7-0.7,1-1.7,1-2.7V9.4c0-1-0.4-2-1-2.7C48.3,6,47.4,5.6,46.4,5.6z M42.5,9.4L25,22.6L7.5,9.4H42.5z
		 M3.6,40.6V11.2L24,26.6c0.3,0.2,0.7,0.3,1,0.3s0.7-0.1,1-0.3l20.4-15.4v29.3H3.6z"/>
</g>
</svg>
