<?xml version="1.0" encoding="utf-8"?>
<!-- Generator: Adobe Illustrator 25.0.0, SVG Export Plug-In . SVG Version: 6.00 Build 0)  -->
<svg version="1.1" id="Layer_1" xmlns="http://www.w3.org/2000/svg" xmlns:xlink="http://www.w3.org/1999/xlink" x="0px" y="0px"
	 viewBox="0 0 50 51" style="enable-background:new 0 0 50 51;" xml:space="preserve">
<style type="text/css">
	.st0{fill:#1C1C1E;stroke:#1D1D1B;stroke-miterlimit:10;}
</style>
<path class="st0" d="M8.8,37c0.3,0.3,0.6,0.8,0.7,1.2c0.2,0.5,0.2,1,0.2,1.4c-0.2,2.3-0.6,4.5-1.2,6.7c4.2-1.1,6.8-2.3,8-3
	c0.7-0.4,1.4-0.5,2.2-0.2c2.1,0.6,4.2,0.9,6.4,0.9c12.2,0,21.3-9.4,21.3-20S37.2,4,25.1,4S3.7,13.4,3.7,24C3.7,28.9,5.6,33.4,8.8,37
	z M7.3,50c-0.7,0.2-1.4,0.3-2.2,0.4c-0.6,0.1-1.1-0.6-0.8-1.2c0.3-0.7,0.5-1.4,0.7-2.1l0,0c0.8-2.4,1.4-5.2,1.6-7.7
	c-3.7-4.1-6-9.5-6-15.3c0.1-13,11-23.4,24.5-23.4S49.6,11.1,49.6,24S38.7,47.3,25.1,47.3c-2.4,0-4.8-0.3-7.1-1
	C16.4,47.2,12.9,48.8,7.3,50z"/>
</svg>
