<svg width="51" height="52" viewBox="0 0 51 52" fill="none" xmlns="http://www.w3.org/2000/svg">
<path d="M9.2 37.3C9.5 37.6 9.8 38.1 9.9 38.5C10.1 39 10.1 39.5 10.1 39.9C9.9 42.2 9.5 44.4 8.9 46.6C13.1 45.5 15.7 44.3 16.9 43.6C17.6 43.2 18.3 43.1 19.1 43.4C21.2 44 23.3 44.3 25.5 44.3C37.7 44.3 46.8 34.9 46.8 24.3C46.8 13.7 37.6 4.3 25.5 4.3C13.4 4.3 4.1 13.7 4.1 24.3C4.1 29.2 6 33.7 9.2 37.3ZM7.7 50.3C7 50.5 6.3 50.6 5.5 50.7C4.9 50.8 4.4 50.1 4.7 49.5C5 48.8 5.2 48.1 5.4 47.4C6.2 45 6.8 42.2 7 39.7C3.3 35.6 1 30.2 1 24.4C1.1 11.4 12 1 25.5 1C39 1 50 11.4 50 24.3C50 37.2 39.1 47.6 25.5 47.6C23.1 47.6 20.7 47.3 18.4 46.6C16.8 47.5 13.3 49.1 7.7 50.3Z" fill="white" stroke="white" stroke-miterlimit="10"/>
<path d="M6.49997 13.5L12.5 6.5L18 4L25.5 2L34.5 4L38.5 7L46 13.5L49 22.5L46 35L38.5 43L27 45.5H18L11.5 47.5H7.5L9 40C7.33332 36.1667 3.89997 28.3 3.49997 27.5C3.09997 26.7 5.33331 17.8333 6.49997 13.5Z" fill="white"/>
</svg>
