<?xml version="1.0" encoding="utf-8"?>
<!-- Generator: Adobe Illustrator 25.0.0, SVG Export Plug-In . SVG Version: 6.00 Build 0)  -->
<svg version="1.1" id="Layer_1" xmlns="http://www.w3.org/2000/svg" xmlns:xlink="http://www.w3.org/1999/xlink" x="0px" y="0px"
	 viewBox="0 0 50 50" style="enable-background:new 0 0 50 50;" xml:space="preserve">
<style type="text/css">
	.st0{fill:#1C1C1E;}
</style>
<path class="st0" d="M25,12.3c-1.5,0-3.1,0.5-4.3,1.3c-1.3,0.9-2.3,2.1-2.9,3.6s-0.7,3.1-0.4,4.6c0.3,1.5,1,3,2.1,4.1s2.5,1.9,4,2.2
	c1.5,0.3,3.1,0.1,4.5-0.5s2.6-1.6,3.5-2.9s1.3-2.9,1.3-4.4c0-2.1-0.8-4.1-2.3-5.6C29.1,13.1,27.1,12.3,25,12.3z M25,25
	c-0.9,0-1.8-0.3-2.6-0.8c-0.8-0.5-1.4-1.3-1.7-2.1c-0.4-0.9-0.4-1.8-0.3-2.8c0.2-0.9,0.6-1.8,1.3-2.4c0.7-0.7,1.5-1.1,2.4-1.3
	s1.9-0.1,2.7,0.3c0.9,0.4,1.6,1,2.1,1.8s0.8,1.7,0.8,2.7c0,1.3-0.5,2.5-1.4,3.4S26.2,25,25,25z"/>
<path class="st0" d="M25.1,0c-4.9,0-9.7,1.5-13.8,4.2C7.2,7,4.1,10.9,2.2,15.4C0.3,20-0.2,25,0.8,29.9c1,4.8,3.3,9.3,6.8,12.8
	s7.9,5.9,12.7,6.8c4.8,1,9.8,0.5,14.4-1.4c4.5-1.9,8.4-5.1,11.2-9.2c2.6-4.1,4.1-9,4.1-13.9c0-6.6-2.6-13-7.3-17.7
	C38.1,2.6,31.7,0,25.1,0z M14.5,43.5V41c0-1.4,0.6-2.8,1.6-3.8s2.4-1.6,3.8-1.6h10.7c1.4,0,2.8,0.6,3.8,1.6S36,39.6,36,41v2.5
	c-3.2,1.9-6.9,2.9-10.7,2.9C21.4,46.4,17.7,45.4,14.5,43.5z M39.3,40.9c0-2.3-1-4.6-2.6-6.2c-1.7-1.6-3.9-2.6-6.2-2.6H19.8
	c-2.3,0-4.6,0.9-6.2,2.6c-1.7,1.6-2.6,3.9-2.6,6.2C7.7,38,5.5,34.2,4.4,30c-1-4.2-0.7-8.6,0.8-12.7s4.3-7.5,7.8-10
	c3.6-2.5,7.8-3.8,12.1-3.8s8.5,1.3,12.1,3.8c3.6,2.5,6.3,6,7.8,10c1.5,4.1,1.8,8.5,0.8,12.7S42.6,38,39.3,40.9L39.3,40.9z"/>
</svg>
