<?xml version="1.0" encoding="utf-8"?>
<!-- Generator: Adobe Illustrator 25.0.0, SVG Export Plug-In . SVG Version: 6.00 Build 0)  -->
<svg version="1.1" id="Layer_1" xmlns="http://www.w3.org/2000/svg" xmlns:xlink="http://www.w3.org/1999/xlink" x="0px" y="0px"
	 viewBox="0 0 50 50" style="enable-background:new 0 0 50 50;" xml:space="preserve">
<style type="text/css">
	.st0{fill:#1C1C1E;}
</style>
<path class="st0" d="M25,19.1l-2.7-6.5c-0.8-1.6-2-4-3.6-5.8S15,3.7,12.6,3.7c-5.2,0-9.4,4.8-9.4,10.6c0,4.4,1.8,7.5,5.9,12.3
	c1.1,1.2,2.3,2.5,3.6,4c3.4,3.8,7.7,8.5,12.5,14.8c4.7-6.3,9-11,12.5-14.8c1.4-1.5,2.5-2.8,3.6-4c4.1-4.8,5.9-7.9,5.9-12.3
	c0-5.8-4.1-10.6-9.4-10.6c-2.5,0-4.4,1.3-6.1,3.1c-1.7,1.9-2.9,4.2-3.6,5.8L25,19.1z M26.2,49.3c-0.2,0.2-0.3,0.4-0.6,0.5
	C25.5,49.9,25.2,50,25,50s-0.5-0.1-0.7-0.2c-0.2-0.1-0.4-0.3-0.6-0.5c-5-6.9-9.5-11.9-13.2-16C4,26.3,0,21.8,0,14.3
	C0,6.4,5.6,0,12.5,0c5,0,8.5,3.8,10.7,7.3c0.8,1.3,1.5,2.6,1.9,3.6c0.6-1.3,1.2-2.5,1.9-3.6C29,3.8,32.5,0,37.5,0
	C44.4,0,50,6.4,50,14.3c0,7.5-4,12-10.5,19.1C35.8,37.4,31.3,42.4,26.2,49.3L26.2,49.3z"/>
<path class="st0" d="M25.8,14.3l-4.4-6.1c0,0-4.3-5.2-5-5.5s-7-1.1-7-1.1l-4.1,3L2,10.1c0,0-0.3,8.5,0,8.8s5.3,9.7,5.3,9.7l5.8,5.5
	c0,0,4.5,5.2,4.7,5.3c0.2,0.1,5.9,6.5,5.9,6.5h3.7l4.1-5.8l5.6-6.5l7.8-8.9l3.4-9.8V8.5l-3.1-2.9l-4.6-2.3l-6.1-0.1L30,7.8
	L25.8,14.3z"/>
</svg>
